<?xml version="1.0" encoding="UTF-8"?>
<svg xmlns="http://www.w3.org/2000/svg" viewBox="0 0 16 16">
  <path fill="#FF9600" d="M7.95,0c-1.9,0-3.8,1.3-3.8,3.9v1.9h-1c-1.1,0-1.8,0.8-1.8,1.9v6.5c0,1.1,0.7,1.9,1.9,1.9h9.6c1.1,0,1.9-0.8,1.9-1.9V7.6c0,-1.1-0.8-1.9-1.9-1.9h-0.9V3.8C11.85,1.3,9.95,0,7.95,0zm0,1.6c1.3,0,2.2,1,2.2,2.2,0.1,1.2-0.4,2.4-2.2,3.1,0.3-0.5,0.4-0.7,0.5-1.2-1.8,0.2-2.7-0.8-2.7-1.9,0,-1.1,0.9-2.2,2.2-2.2z"/>
  <path fill="#5C5C5C" d="M8,7.85 L10.75,9.02 V11.82 C10.75,13.12 8,14.32 8,14.32 C8,14.32 5.25,13.12 5.25,11.82 V9.02 Z"/><circle cx="8" cy="10.95" r="0.95" fill="#8A8A8A"/><circle cx="8" cy="11.05" r="3.2" fill="none" stroke="#C94F50" stroke-width="1.15"/>
</svg>
