<?xml version="1.0" encoding="UTF-8"?>
<svg xmlns="http://www.w3.org/2000/svg" viewBox="0 0 16 16">
  <path fill="#FF9600" d="M7.95,0c-1.9,0-3.8,1.3-3.8,3.9v1.9h-1c-1.1,0-1.8,0.8-1.8,1.9v6.5c0,1.1,0.7,1.9,1.9,1.9h9.6c1.1,0,1.9-0.8,1.9-1.9V7.6c0,-1.1-0.8-1.9-1.9-1.9h-0.9V3.8C11.85,1.3,9.95,0,7.95,0zm0,1.6c1.3,0,2.2,1,2.2,2.2,0.1,1.2-0.4,2.4-2.2,3.1,0.3-0.5,0.4-0.7,0.5-1.2-1.8,0.2-2.7-0.8-2.7-1.9,0,-1.1,0.9-2.2,2.2-2.2z"/>
  <path fill="#CDBE41" d="M8,8.05a3.15,3.15 0 1,1 0,6.3a2.15,2.15 0 1,0 0,-6.3z"/><circle cx="8" cy="10.95" r="0.95" fill="#C9A227"/>
</svg>
